<svg width="48" height="48" viewBox="0 0 48 48" fill="none" xmlns="http://www.w3.org/2000/svg">
<path d="M0 48V36.6667L35.2 1.53333C35.7333 1.04444 36.3227 0.666667 36.968 0.4C37.6133 0.133334 38.2907 0 39 0C39.7093 0 40.3982 0.133334 41.0667 0.4C41.7351 0.666667 42.3129 1.06667 42.8 1.6L46.4667 5.33333C47 5.82222 47.3893 6.4 47.6347 7.06667C47.88 7.73333 48.0018 8.4 48 9.06667C48 9.77778 47.8782 10.456 47.6347 11.1013C47.3911 11.7467 47.0018 12.3351 46.4667 12.8667L11.3333 48H0ZM38.9333 12.8L42.6667 9.06667L38.9333 5.33333L35.2 9.06667L38.9333 12.8Z" fill="white"/>
</svg>
